<svg id="Group_577" data-name="Group 577" xmlns="http://www.w3.org/2000/svg" xmlns:xlink="http://www.w3.org/1999/xlink" width="103.499" height="103.501" viewBox="0 0 103.499 103.501">
  <defs>
    <linearGradient id="linear-gradient" y1="0.5" x2="1" y2="0.5" gradientUnits="objectBoundingBox">
      <stop offset="0" stop-color="#e91d58"/>
      <stop offset="0.515" stop-color="#ed4425"/>
      <stop offset="1" stop-color="#fab11a"/>
    </linearGradient>
  </defs>
  <g id="Group_471" data-name="Group 471">
    <path id="Path_729" data-name="Path 729" d="M645.808,473.372a51.842,51.842,0,0,1-45.868,51.421,52.615,52.615,0,0,1-11.762,0A51.839,51.839,0,0,1,542.8,480.429a49.814,49.814,0,0,1-.494-7.057c0-1.6.071-3.151.211-4.7a50.846,50.846,0,0,1,2.093-10.585,51.753,51.753,0,0,1,101.194,15.289Z" transform="translate(-542.309 -421.622)" fill="url(#linear-gradient)"/>
  </g>
  <g id="Group_472" data-name="Group 472" transform="translate(40.441 16.467)">
    <path id="Path_730" data-name="Path 730" d="M588.82,435.349l-5.354,44.624a3.563,3.563,0,0,1-3.537,3.138h-4.781a3.562,3.562,0,0,1-3.537-3.138l-5.356-44.624a3.562,3.562,0,0,1,3.537-3.987h15.492A3.561,3.561,0,0,1,588.82,435.349Z" transform="translate(-566.229 -431.362)" fill="#fff"/>
    <circle id="Ellipse_64" data-name="Ellipse 64" cx="7.057" cy="7.057" r="7.057" transform="translate(4.252 56.454)" fill="#fff"/>
  </g>
</svg>
