<svg xmlns="http://www.w3.org/2000/svg" width="38.457" height="31.942" viewBox="0 0 38.457 31.942">
  <g id="left-arrow" transform="translate(0 -41.674)">
    <g id="Group_124" data-name="Group 124" transform="translate(0 41.674)">
      <path id="Path_50" data-name="Path 50" d="M36.3,54.629l.06.013H10.622l8.09-8.108a2.125,2.125,0,0,0,0-2.987l-1.259-1.259a2.106,2.106,0,0,0-2.972,0L.613,56.153a2.12,2.12,0,0,0,0,2.982L14.48,73a2.108,2.108,0,0,0,2.972,0l1.259-1.259a2.083,2.083,0,0,0,.613-1.486,2.021,2.021,0,0,0-.613-1.458L10.53,60.647H36.324a2.179,2.179,0,0,0,2.133-2.157V56.708A2.137,2.137,0,0,0,36.3,54.629Z" transform="translate(0 -41.674)"/>
    </g>
  </g>
</svg>
