<svg id="Group_645" data-name="Group 645" xmlns="http://www.w3.org/2000/svg" width="19.061" height="19.061" viewBox="0 0 19.061 19.061">
  <g id="Group_471" data-name="Group 471">
    <path id="Path_729" data-name="Path 729" d="M561.37,431.153a9.547,9.547,0,0,1-8.447,9.47,9.689,9.689,0,0,1-2.166,0,9.547,9.547,0,0,1-8.356-8.17,9.17,9.17,0,0,1-.091-1.3c0-.295.013-.58.039-.866a9.359,9.359,0,0,1,.385-1.949,9.531,9.531,0,0,1,18.637,2.816Z" transform="translate(-542.309 -421.622)" fill="#e91d58"/>
  </g>
  <g id="Group_472" data-name="Group 472" transform="translate(7.448 3.033)">
    <path id="Path_730" data-name="Path 730" d="M570.389,432.1l-.986,8.218a.656.656,0,0,1-.651.578h-.881a.656.656,0,0,1-.651-.578l-.986-8.218a.656.656,0,0,1,.651-.734h2.853A.656.656,0,0,1,570.389,432.1Z" transform="translate(-566.229 -431.362)" fill="#fff"/>
    <circle id="Ellipse_64" data-name="Ellipse 64" cx="1.3" cy="1.3" r="1.3" transform="translate(0.783 10.397)" fill="#fff"/>
  </g>
</svg>
