<svg xmlns="http://www.w3.org/2000/svg" width="18.838" height="15.647" viewBox="0 0 18.838 15.647">
  <g id="left-arrow" transform="translate(-296.531 -387.849)">
    <g id="Group_124" data-name="Group 124">
      <path id="Path_50" data-name="Path 50" d="M297.59,397.149l-.029-.006h12.607l-3.965,3.971a1.042,1.042,0,0,0,0,1.463l.617.618a1.03,1.03,0,0,0,1.455,0l6.793-6.792a1.038,1.038,0,0,0,0-1.461l-6.792-6.792a1.031,1.031,0,0,0-1.456,0l-.617.617a1.024,1.024,0,0,0-.3.728.989.989,0,0,0,.3.714l4.007,3.993H297.576a1.068,1.068,0,0,0-1.045,1.057v.872A1.047,1.047,0,0,0,297.59,397.149Z" fill="#030504"/>
    </g>
  </g>
</svg>
